<?xml version="1.0" encoding="utf-8"?>
<!-- Generator: Adobe Illustrator 22.1.0, SVG Export Plug-In . SVG Version: 6.00 Build 0)  -->
<svg version="1.1" id="Layer_1" xmlns="http://www.w3.org/2000/svg" xmlns:xlink="http://www.w3.org/1999/xlink" x="0px" y="0px"
	 viewBox="0 0 128 53" style="enable-background:new 0 0 128 53;" xml:space="preserve">
<style type="text/css">
	.st0{fill:#EC1C24;}
	.st1{fill:#F6921E;}
	.st2{fill:#231F20;}
</style>
<g>
	<path class="st0" d="M83.8,17.6H63c-0.4,0-0.7,0.3-0.7,0.7v1.6c0,0.4,0.3,0.7,0.7,0.7h15.5v8.6c-0.4-0.6-0.9-1.2-1.5-1.8
		c-1.8-1.9-3.8-2.8-5.8-2.8c-1.6,0-3,0.8-4.1,2.3c-0.9,1.2-1.4,2.7-1.4,4c0,1.4,0.2,3.1,1.3,4.7c1.3,1.9,3.3,2.5,5.1,2.5
		c2.4,0,4.4-1.7,4.4-3.8c0-1.3-0.6-2.3-1.8-2.9l-1.1-0.6V32c0,0.1,0,0.2,0,0.3c0,0.1,0,0.2,0,0.2c-0.1,0.5-1,1.2-1.9,1.2
		c-0.8,0-1.6-0.3-2-0.8c-0.3-0.4-0.5-0.9-0.4-1.4c0-0.6,0.2-1.1,0.7-1.7c0.5-0.6,1-0.9,1.8-0.9c2.1,0,3.8,1,5.2,3
		c1.1,1.7,1.7,3.4,1.7,5.2l0,4.3l3.1,1.9c0.1,0.1,0.2,0.1,0.3,0.1c0.4,0,0.7-0.3,0.7-0.7l0,0V20.6h1.2c0.4,0,0.7-0.3,0.7-0.7v-1.6
		C84.4,17.9,84.1,17.6,83.8,17.6z"/>
	<path class="st0" d="M125.3,17.6h-18.5h-2.5H99c-0.4,0-0.7,0.3-0.7,0.7l0,0v2.9c-2.5-2.7-4.8-4-6.9-4c-2,0-3.6,0.5-5,1.5
		c-1.4,1.1-2.1,2.4-2.1,3.9c0,4.6,5.2,4.6,6.4,3.9c0.2-0.1,0.5-0.3,0.9-0.3c1,0,1.4,0.8,1.4,1.5c0,1.1-1.5,2-3.3,2
		c-1,0-1.7-0.3-2.1-0.9l-0.8-1.2L86.2,29c-0.1,0.3-0.3,0.7-0.3,1.2c0,1.1,0.5,2.1,1.5,2.9c1,0.8,2.1,1.2,3.3,1.2
		c2,0,3.6-0.7,4.7-2.1c0.9-1.1,1.3-2.5,1.3-4c0-0.9-0.3-1.7-1-2.7c-0.8-1.2-1.8-1.8-3-1.8c-0.4,0-0.9,0.1-1.5,0.3
		C91,23.9,90.7,24,90.6,24c-0.2,0-0.5-0.1-0.7-0.4c-0.2-0.2-0.4-0.5-0.4-1c0-1.1,1.1-2.3,2.9-2.3c0,0,0.1,0,0.1,0
		c1.2,0,2.4,0.6,3.6,1.8c0.9,0.9,1.7,1.8,2.2,2.8v16.4l3.1,1.8c0.1,0.1,0.2,0.1,0.3,0.1c0.4,0,0.7-0.3,0.7-0.7l0,0v-22h1.9h2.5h0.3
		v14.2l3.7,1.5c0.1,0,0.2,0,0.2,0c0.3,0,0.6-0.3,0.7-0.6l0-0.1c0.6-4.2,2.5-7.1,5.6-8.9c0,0.2,0,0.5,0,0.8c0,0.6,0,2.1,0.1,3
		c0,0.5,0,0.8,0.1,1.1h0c0,1.6,0.2,4.2,0.8,6c1,3.5,2.8,4.3,4.1,4.4c0,0,0.1,0,0.1,0c0.8,0,1.3-0.2,1.7-0.6c0.2-0.2,0.5-0.7,0.5-1.3
		c0-0.7-0.1-1.2-0.3-1.5l-0.3-0.5l-0.6,0.1c-0.7,0.2-0.9,0.2-0.9,0.1l-0.1,0c-0.2,0-0.2,0-0.3-0.1c-0.2-0.1-0.6-0.5-0.9-1.6
		c-0.2-0.8-0.3-2-0.3-2.6c0-4.6,1-8.1,2.4-8.9l0.1,0c0.2-0.1,0.4-0.3,0.4-0.6c0-0.1,0-0.2-0.1-0.3l0-0.1c-0.7-1.4-2.2-2.4-4.3-3
		l-0.2,0l-0.2,0c-1.6,0.3-3.6,1.4-6.1,3.5c-0.6,0.5-1.2,1.1-1.8,1.6v-5.7h14.2c0.4,0,0.7-0.3,0.7-0.7v-1.6
		C126,17.9,125.7,17.6,125.3,17.6z"/>
	<g>
		<path class="st0" d="M50.7,28.2c0,0.7,0,1.3-0.1,2c-0.2,2.9-1,5.6-2.1,8.1c-0.5,1-1,2-1.6,2.9C42.6,48,35,52.6,26.3,52.6
			c-3.7,0-7.2-0.8-10.4-2.3C7.7,46.4,2,38,2,28.2c0-9.5,5.5-17.8,13.5-21.8c-0.6,0.8-1.2,1.7-1.7,2.6c0,0.1-0.1,0.1-0.1,0.2
			c0,0,0,0,0,0c-0.3,0.3-0.6,0.5-0.9,0.8c-0.4,0.3-0.7,0.7-1.1,1.1c-0.1,0.1-0.2,0.2-0.2,0.3c-0.1,0.1-0.2,0.2-0.2,0.3
			c-0.1,0.1-0.3,0.3-0.4,0.4c-0.3,0.3-0.5,0.6-0.7,0.9c-1,1.3-1.8,2.8-2.5,4.3c-0.1,0.2-0.1,0.3-0.2,0.5c-0.1,0.2-0.1,0.4-0.2,0.5
			C7,18.5,7,18.6,7,18.7c-0.1,0.3-0.2,0.6-0.3,0.9c-0.1,0.2-0.1,0.4-0.2,0.6c0,0.1-0.1,0.2-0.1,0.3c0,0.2-0.1,0.4-0.1,0.6
			C6.2,21.6,6,22.2,6,22.8c0,0.2,0,0.3-0.1,0.5c0,0.1,0,0.2,0,0.4c0,0.2,0,0.4,0,0.6c0,0,0,0,0,0c0,0.2,0,0.4,0,0.6
			c0,0.3,0,0.6,0,0.9c0,6.6,3,12.5,7.8,16.4c3.7,3,8.4,4.8,13.5,4.8c4.6,0,8.9-1.5,12.4-4c2.6-1.8,4.7-4.2,6.2-7
			c0.2-0.4,0.4-0.7,0.6-1.1c0,0,0,0,0,0c0,0,0,0,0,0c1.2-2.6,1.9-5.4,2-8.4c0-0.2,0-0.5,0-0.7c0-0.7,0-1.4-0.1-2.1
			c0,0,0.1,0.1,0.1,0.1c0.3,0.3,0.6,0.6,1,0.8c0.3-0.5,0.6-1,1-1.4c0.2,0.9,0.3,1.9,0.4,2.8C50.6,26.8,50.7,27.5,50.7,28.2"/>
		<path class="st1" d="M48.3,25.8c0,0.2,0,0.5,0,0.7c0,4.3-1.8,7.9-2,8.4c0,0,0,0,0,0c0,0,0,0,0,0c-0.2,0.4-0.4,0.7-0.6,1.1
			c-1.5,2.8-3.7,5.2-6.2,7c-3.5,2.5-7.8,4-12.4,4c-5.1,0-9.8-1.8-13.5-4.8c-4.8-3.9-7.8-9.8-7.8-16.4c0-0.3,0-0.6,0-0.9
			c0-0.2,0-0.4,0-0.6c0,0,0,0,0,0c0-0.2,0-0.4,0-0.6c0-0.1,0-0.3,0-0.4c0-0.2,0-0.3,0.1-0.5C6,22.2,6.2,21.6,6.3,21
			c0-0.2,0.1-0.4,0.1-0.6c0-0.1,0.1-0.2,0.1-0.3c0.1-0.2,0.1-0.4,0.2-0.6C6.8,19.2,6.9,19,7,18.7c0-0.1,0.1-0.2,0.1-0.3
			c0.1-0.2,0.1-0.4,0.2-0.5c0.1-0.2,0.1-0.3,0.2-0.5c0.7-1.6,1.5-3,2.5-4.3c0.2-0.3,0.5-0.6,0.7-0.9c0.1-0.1,0.2-0.3,0.4-0.4
			c0.1-0.1,0.1-0.2,0.2-0.3c0.1-0.1,0.2-0.2,0.2-0.3c0.3-0.4,0.7-0.7,1.1-1.1c0.3-0.3,0.6-0.6,0.9-0.8c0,0,0,0,0,0
			c0,0.1-0.1,0.2-0.1,0.2c0,0.1-0.1,0.2-0.1,0.3c-1.2,2.5-2,5.4-2.3,8.6c-0.1,0.8-0.1,1.7-0.1,2.6c0,11.1,6.5,20.1,14.6,20.1
			c0,0,0.1,0,0.1,0c0.2,0,0.5,0,0.8,0c1.2,0,2.3-0.2,3.4-0.5c5.5-1.5,9.5-6.5,9.5-12.4c0-0.1,0-0.2,0-0.4c-0.1-3.5-1.6-6.7-4-8.9
			c1.7,0,3.3,0.3,4.8,0.7c3,0.8,5.7,2.2,8,4c0,0,0.1,0.1,0.1,0.1C48.2,24.4,48.3,25.1,48.3,25.8"/>
		<path class="st1" d="M48.3,25.8c0,0.2,0,0.5,0,0.7c0,4.6-2,8.4-2,8.5c-0.2,0.4-0.4,0.7-0.6,1.1c-1.5,2.8-3.7,5.2-6.2,7.1
			c-3.6,2.6-8,4-12.5,4c-4.9,0-9.7-1.7-13.5-4.8c-5-4.1-7.8-10.1-7.8-16.5c0-6.4,2.9-12.5,7.9-16.6l0.2-0.2c0,0.1-0.1,0.1-0.1,0.2
			c0,0.1-0.1,0.2-0.1,0.2c-4.9,4-7.6,10-7.6,16.3c0,6.4,2.8,12.3,7.8,16.4C17.4,45.3,22.1,47,27,47c4.5,0,8.7-1.4,12.4-4
			c2.5-1.8,4.7-4.3,6.2-7c0.2-0.4,0.4-0.7,0.6-1.1c0,0,2.1-3.9,2-8.4c0-0.2,0-0.5,0-0.7c0-0.7,0-1.4-0.1-2l0-0.1
			c0,0,0.1,0.1,0.1,0.1c0,0,0.1,0.1,0.1,0.1C48.3,24.5,48.3,25.2,48.3,25.8"/>
		<path class="st0" d="M42.5,12.6c0,0-17.4-3.3-25.5,11.8c0,0,1.4-10.4,13.8-15.2l-2.5-4.6c0,0,5-4.5,13.7-3.3L42.5,12.6z"/>
		<path class="st1" d="M21,20.6c0,0,6.9-9.1,22.8-6.7l-0.2-5.3c0,0,6.6-0.2,12,4.4L49,23c0,0-4.5-5.3-13.9-5.4
			C31.2,17.5,26.5,18,21,20.6"/>
		<path class="st0" d="M24.7,24.1c0,0-1.5,0.3-1.4-0.4c0-0.3,0.2-0.4,0.3-0.3c0-0.1-0.3-0.5,0.4-0.7c0.2-0.3,0.4-0.6,0.5-0.8
			c0.1-0.2,0.2-0.5,0.8-0.3c0.6,0.1,1.2,0.7,1.3,0.9c0.3,0,0.7,0.1,0.6,0.1c-0.1,0.1-0.2,0.2-0.2,0.2c0,0,0.2,0.1-0.4,0.1
			c0,0.1,0.1,0.2,0.2,0.2c0.1,0.1,0,0.1,0,0.2c0,0,0.1,0.3-0.2,0.2c-0.3-0.1-0.3-0.2-0.4-0.2c-0.1,0-0.3,0-0.3,0.1
			c0,0.1,0.3,0.3,0,0.3c-0.1,0.1,0.1,0.2,0,0.2c-0.1,0.1-0.8,0.6-1.1,0.7c-0.3,0-0.4-0.1-0.4-0.2c0-0.1,0.2-0.2,0.4-0.2
			C24.7,24.2,24.8,24.1,24.7,24.1"/>
		<path class="st0" d="M24.6,25.7c-0.1,0-0.6-0.3-0.3-0.4c0.2-0.2,1.2-0.8,1.4-0.9c0.2-0.1,0.5,0.2,0.2,0.4
			C25.6,25.1,24.6,25.7,24.6,25.7"/>
		<path class="st0" d="M26.1,25c0-0.2,0.2-0.8,0.2-0.9c0-0.1,0.5-0.2,0.4,0.4C26.5,25,26.1,25.2,26.1,25"/>
		<path class="st0" d="M26.8,23.8c0,0,2.8-0.1,3,0c0.2,0.1,1.2,1.6,0.9,2.9c-0.2,1.3-0.6,1.6-2.4,1.8c0-0.4-0.1-1.5-0.3-1.8
			c-0.2-0.3-0.8-1-1-1c0,0.3-0.1,1.2-0.1,1.2s-0.9,0.1-1-0.1c0-0.3,0-1.4,0-1.4s0.8-0.7,0.9-0.9c0.1,0.1,0.2,0.5,1.1,0.4
			C27.9,25,26.8,25.1,26.8,23.8"/>
		<path class="st0" d="M25.7,25.1c0,0-0.9,0.7-1.1,0.9c-0.1,0.2-0.2,1,0.9,1C25.7,26.5,25.7,25.1,25.7,25.1"/>
		<path class="st0" d="M23.6,26.2c-0.3,0-0.5-0.1-0.5-0.3c0-0.2,0.4-0.5,0.7-0.4c0.2,0.1,0.7,0.2,0.7,1.1c0.2,0.2,0.7,0.6,1.4,0.6
			c0.7,0,1.1,0,1.1,0.2v1.3c0,0-0.8,0-2.8-1.4c-0.2-0.2-0.3-0.4-0.3-0.7C23.9,26.3,23.7,26.2,23.6,26.2"/>
		<path class="st0" d="M23,26.3c-0.3,0-1.3,0.8-0.6,1.1c0.2-0.2,0.4-0.4,0.4-0.4s-0.2,0.5,0.2,0.6c0.4,0.1,0.2-0.2,0.4-0.2
			c0.1,0.2,0.1,0.3,0.3,0.3c0.2,0,0.2-0.6,0-0.9C23.6,26.5,23.4,26.3,23,26.3"/>
		<path class="st0" d="M27.2,26.4V29c0,0,0.8-0.3,0.9-0.5C28.1,28.1,27.9,26.4,27.2,26.4"/>
		<path class="st0" d="M25.1,28.1c0,0,1,0.7,1.6,0.9c-0.1,0.1-0.5,0.7-0.7,0.6C25.9,29.6,25.2,28.6,25.1,28.1"/>
		<polygon class="st0" points="21.6,29.6 20.3,29.6 20.2,29.1 21.6,29.1 		"/>
		<polygon class="st0" points="30.3,29.5 35.1,29.5 35.1,28.8 29.4,28.8 		"/>
		<path class="st0" d="M28.3,28.8c0.1-0.1,0.8,0.4,0.6,0.5c-0.2,0.1-2,0.8-2.1,0.8c-0.2-0.1-0.1-0.5,0.1-0.6
			C27,29.4,28,29.1,28.3,28.8"/>
		<path class="st0" d="M26.3,30c-0.2-0.1-1.3,1-0.8,1.1c0.5,0.1,1.7,0.3,2,0.5c0.3-0.1,0.5-0.4,0.5-0.5c0.2,0,0.5,0.3,0.8,0.2
			c0.3-0.1,1.7-1.1,1.7-1.3c-0.3-0.2-0.9-0.6-1.2-0.6C29.1,29.3,27.3,30.4,26.3,30"/>
		<path class="st0" d="M25.7,31.4c0.1,0,1.6,0.5,1.9,0.5c0.4-0.1,0.4-0.4,0.6-0.4c0.2,0,0.3,0.2,0.6,0c0.3-0.2,1-0.8,1.1-0.9
			c0,0.2,0,0.8-1.3,1.4c-1.3,0.6-4.4,1.5-4.5,1.9c0.1,0,0.5-0.1,0.8-0.2c0.2,0.1,0.5,0.5,0.4,1.2c-0.1,0.7-0.6,1.8-0.6,2.1
			c0,0.3,0,1.7,0,1.9c0,0.1,0.3,1-0.1,0.9c-0.4-0.1-0.6-0.1-0.8,0c-0.2,0-0.5,0.3-0.7,0.2c-0.3,0-0.7-0.2-0.7-0.3
			c0-0.1,0.3-0.1,0.6-0.2c0.3-0.1,0.4-0.4,0.9-0.6c0-0.3-0.2-2.8-0.2-3.3c0-0.5-0.2-1.6,0.1-2C24,33,25.2,31.3,25.7,31.4"/>
		<path class="st0" d="M27.6,32.8c0,0.2,0.9,2.4,1.3,2.4c0.4,0,4.1-0.8,4.8-0.5c0.2,0.3,0.6,0.8,0.6,1.1c0,0,0.1,0.7,0,0.8
			c0.1,0,0.4-0.1,0.5-0.3c0.1-0.2,0-1.2,0-1.4c0-0.2,0.5-1.1-0.1-1c-0.6,0-2.3,0-2.9-0.1c-0.5-0.1-1.8-0.4-2.1-0.2
			c-0.3,0.2-0.7,0.7-0.7,0.8c-0.1,0-0.2-0.1,0-0.5c0.1-0.4,0.6-1.5,0.5-2.1C29.2,31.9,27.6,32.8,27.6,32.8"/>
		<path class="st0" d="M25.5,29.3c0,0.1,0.1,0.3,0.2,0.4l-2.9-0.2c0,0-0.3-0.2-0.2-0.3L25.5,29.3z"/>
		<path class="st0" d="M22.3,29.1h2.9c0,0-0.2-0.3-0.3-0.5c-0.5,0-2.7,0-2.7,0s-0.3,0-0.3,0.6C21.9,29.3,22.1,29.5,22.3,29.1"/>
		<path class="st0" d="M19.5,29.6h0.6c0,0,0.2-0.1,0-0.3c-0.2-0.2-0.6-0.4-0.3-0.8c-0.3,0-0.7-0.1-0.6,0.8h-0.3c0,0-0.1-0.5-0.8-0.5
			s-2.4,0.7-2.4,0.7s1.9,0.5,2.4,0.5c0.5,0,0.8-0.5,0.8-0.5h0.2c0,0,0.1,0.4,0.2,0.5c0,0.2,0,0.6,0,0.6S19,30.7,19.1,31
			c0,0.3,0.2,0.3,0.3,0.3c0.1,0,0.1-0.1,0.4-0.1c0.1-0.1,0-0.5-0.2-0.6c0-0.2,0-0.4,0-0.4s0.2-0.2,0.2-0.3
			C19.7,29.7,19.5,29.8,19.5,29.6"/>
		<path class="st0" d="M23,32.4L23,32.4c0.2-0.1,0.3-0.4,0.3-0.4l0,0v0c0,0,0-1.3,0-1.7c0-0.4-0.7-0.7-0.8-0.7l0,0l0,0
			c-0.1,0.1-0.3,0.2-0.4,0.2c-0.2,0-0.3,0-0.5-0.2l0,0h0c-0.6,0-0.9,0.7-0.9,0.8l0,0c0,0.1-0.1,1.4,0,1.6c0,0.2,0.2,0.4,0.3,0.5
			c-0.1,0.4-0.7,2.7,0.1,3v0.4h2v-0.4C23.7,35,23.2,33,23,32.4 M20.7,30.3c0-0.1,0.3-0.6,0.7-0.6c0.2,0.2,0.4,0.2,0.6,0.2
			c0.2,0,0.4-0.2,0.5-0.2c0.2,0.1,0.6,0.3,0.6,0.6c0,0.4,0,1.6,0,1.7c0,0.1-0.1,0.2-0.2,0.3l-0.4,0v-0.8h-1.3v0.7l-0.3,0
			c-0.1-0.1-0.2-0.2-0.2-0.4C20.7,31.7,20.7,30.8,20.7,30.3 M22.1,35h-0.4c-0.1,0-0.2-0.1-0.2-0.2c0-0.1,0.1-0.2,0.2-0.2h0.4
			c0.1,0,0.2,0.1,0.2,0.2C22.3,34.9,22.2,35,22.1,35 M22.9,35.2l-1-1.1L21,35.2v0c-0.6-0.2-0.2-2,0-2.8l1.9,0
			C23.1,33.2,23.4,34.9,22.9,35.2"/>
		<path class="st0" d="M22.6,33.2c0.2-0.3-0.1-0.5-0.1-0.5h-1.2c-0.4,0-0.3,0.5-0.3,0.5l0.7,0.6C21.9,33.8,22.4,33.5,22.6,33.2"/>
		<path class="st0" d="M22.1,33.9l0.7,0.8c0,0-0.1-1-0.1-1.3C22.6,33.5,22.1,33.9,22.1,33.9"/>
		<path class="st0" d="M21.1,33.4c0,0.3-0.1,1.3-0.1,1.3l0.7-0.8C21.7,33.9,21.3,33.5,21.1,33.4"/>
		<path class="st0" d="M22.5,31.3h0.1v-0.1c0-0.1-0.1-0.1-0.1-0.1h-1.1c-0.1,0-0.1,0.1-0.1,0.1v0.1h0.1H22.5z"/>
		<path class="st0" d="M20.9,35.9h-0.1V36c0,0.1,0.1,0.1,0.1,0.1h2c0.1,0,0.1-0.1,0.1-0.1v-0.1h-0.1H20.9z"/>
		<path class="st1" d="M14.2,28.8c0,0-7.9-17.3,10.5-28.4l4.4,8.1c0,0-3,1-6.2,3.8C19.4,15.3,15.7,20.3,14.2,28.8"/>
	</g>
	<g>
		<path class="st2" d="M64.4,49.4v1.3l1.1-0.4l0.3,0.3c0,0.1,0,0.3,0,0.4c0,0.4-0.1,0.8-0.4,1.1c-0.2,0.3-0.6,0.4-1,0.4
			c-0.5,0-0.9-0.2-1.2-0.6c-0.3-0.3-0.5-0.7-0.7-1.2l0.3-0.2c0.4,1.1,0.9,1.6,1.6,1.6c0.3,0,0.5-0.1,0.7-0.3
			c0.2-0.2,0.3-0.4,0.3-0.7c0-0.1,0-0.2-0.1-0.3l-1,0.4L64,50.8v-1.4h-1.7v-0.3h3.8v0.3H64.4z"/>
		<polygon class="st2" points="66.9,49.4 66.9,52.4 66.5,52.4 66.5,49.4 66,49.4 66,49.1 67.3,49.1 67.3,49.4 		"/>
		<path class="st2" d="M69.4,49.4v0.2c0.3,0,0.6,0.1,0.9,0.3c0.3,0.2,0.5,0.4,0.5,0.7c0,0.2-0.1,0.4-0.3,0.6
			c-0.2,0.1-0.4,0.2-0.6,0.2c0,0-0.1,0-0.1,0V51h0.2c0.3,0,0.4-0.1,0.4-0.4c0-0.3-0.3-0.5-1-0.6v2.4H69c-0.2-0.3-0.4-0.6-0.6-0.9
			c-0.3-0.3-0.6-0.4-1-0.4l-0.1-0.5c0.2-0.2,0.8-0.5,1.7-1v-0.2h-1.8v-0.3H71v0.3H69.4z M69,50c-0.2,0.1-0.4,0.2-0.5,0.3L68,50.8
			c0.2,0.1,0.4,0.3,0.5,0.5c0.1,0.1,0.3,0.3,0.5,0.6V50z"/>
		<path class="st2" d="M76.1,48.5c-0.6-0.4-1.2-0.6-1.6-0.6c-0.4,0-0.7,0.1-1,0.3c-0.3,0.2-0.4,0.5-0.4,0.9h0.4v0.3h-0.4v2.9h-0.4
			v-2.9h-0.4v-0.3h0.4c0-0.5,0.2-0.9,0.5-1.2c0.3-0.3,0.7-0.4,1.2-0.4c0.3,0,0.6,0.1,1,0.2c0.2,0.1,0.5,0.3,0.9,0.5L76.1,48.5z"/>
		<path class="st2" d="M76.4,49.4v3H76c-0.2-0.3-0.5-0.6-1-0.9c-0.5-0.3-0.9-0.4-1.3-0.4l-0.1-0.5c0.2-0.2,0.6-0.4,1.2-0.6
			c0.2-0.1,0.6-0.2,1.3-0.5v-0.2h-2.7v-0.3h3.5v0.3H76.4z M76,50c-0.4,0.1-1,0.4-1.8,0.8c0.7,0.3,1.3,0.6,1.8,1V50z"/>
		<path class="st2" d="M76.7,49.1h3.7v0.3h-3.7V49.1z M78.8,52.4c-0.4,0-0.8-0.2-1.2-0.6c-0.3-0.3-0.5-0.7-0.7-1.2l0.2-0.2
			c0.1,0.4,0.3,0.8,0.6,1.1c0.3,0.4,0.6,0.6,1,0.6c0.3,0,0.5-0.1,0.7-0.3c0.2-0.2,0.3-0.4,0.3-0.7c-0.3,0.2-0.5,0.3-0.8,0.3
			c-0.2,0-0.5-0.1-0.6-0.2c-0.2-0.2-0.3-0.4-0.3-0.6c0-0.2,0.1-0.4,0.2-0.6c0.1-0.1,0.3-0.2,0.6-0.2c0.2,0,0.3,0,0.4,0.1
			c0.1,0.1,0.2,0.2,0.2,0.4c0,0.1-0.1,0.3-0.2,0.4l-0.3-0.2c0.1-0.1,0.1-0.1,0.1-0.2c0-0.1-0.1-0.2-0.2-0.2c-0.1,0-0.2,0-0.3,0.1
			c-0.1,0.1-0.1,0.2-0.1,0.3c0,0.2,0.1,0.3,0.2,0.4c0.1,0.1,0.2,0.2,0.4,0.2c0.3,0,0.6-0.1,0.8-0.4l0.4,0.4c0,0.4-0.1,0.8-0.4,1
			C79.5,52.2,79.2,52.4,78.8,52.4"/>
		<polygon class="st2" points="81.1,49.4 81.1,52.4 80.8,52.4 80.8,49.4 80.3,49.4 80.3,49.1 81.6,49.1 81.6,49.4 		"/>
		<path class="st2" d="M83.1,52.6c-0.4,0-0.7-0.1-0.9-0.2c-0.3-0.3-0.5-0.8-0.5-1.3c0-0.3,0.1-0.6,0.3-0.9c0.1-0.2,0.3-0.5,0.6-0.8
			h-1.2v-0.3h1.9v0.3c-0.3,0.1-0.6,0.3-0.8,0.7c-0.3,0.3-0.4,0.7-0.4,1c0,0.8,0.3,1.2,1,1.2c0.1,0,0.2,0,0.3-0.1v0.4
			C83.3,52.6,83.2,52.6,83.1,52.6"/>
		<path class="st2" d="M85.6,49.4v2.9h-0.4v-1.9c0-0.1-0.1-0.2-0.2-0.3c-0.2-0.4-0.5-0.6-0.9-0.6c-0.1,0-0.3,0.1-0.4,0.2
			c0,0-0.1,0.1-0.2,0.2c0.2-0.1,0.3-0.1,0.4-0.1c0.2,0,0.3,0,0.5,0.1c0.1,0.1,0.2,0.2,0.2,0.4c0,0.2-0.1,0.4-0.3,0.6
			c-0.2,0.2-0.4,0.4-0.6,0.4l-0.2-0.3c0.2-0.1,0.3-0.2,0.5-0.3c0.2-0.2,0.3-0.3,0.3-0.5c0-0.1-0.1-0.2-0.3-0.2
			c-0.2,0-0.3-0.1-0.4-0.1c0,0-0.1,0-0.1,0l-0.2-0.4c0.2-0.2,0.4-0.4,0.4-0.4c0.2-0.1,0.3-0.2,0.5-0.2c0.4,0,0.8,0.2,1.1,0.7v-0.7
			H86v0.3H85.6z"/>
		<path class="st2" d="M88.9,49.4v3h-0.4c-0.2-0.3-0.5-0.6-1-0.8c-0.5-0.3-0.9-0.4-1.3-0.4l-0.1-0.5c0.6-0.4,1.4-0.7,2.4-1.1v-0.2
			h-2.6v-0.3h3.4v0.3H88.9z M88.5,50c-0.6,0.2-1.2,0.5-1.7,0.8c0.6,0.2,1.2,0.5,1.7,1V50z M87.5,52.5c-0.1-0.1-0.3-0.3-0.6-0.4
			l0.2-0.3c0.2,0.1,0.4,0.2,0.6,0.4L87.5,52.5z"/>
		<path class="st2" d="M94.4,48.5c-0.6-0.4-1.2-0.6-1.6-0.6c-0.4,0-0.7,0.1-1,0.3c-0.3,0.2-0.4,0.5-0.4,0.9h0.4v0.3h-0.4v2.9H91
			v-2.9h-0.4v-0.3H91c0-0.5,0.2-0.9,0.5-1.2c0.3-0.3,0.7-0.4,1.2-0.4c0.3,0,0.6,0.1,1,0.2c0.2,0.1,0.5,0.3,0.9,0.5L94.4,48.5z"/>
		<path class="st2" d="M93.7,49.4v1.3l1.1-0.4l0.3,0.3c0,0.1,0,0.3,0,0.4c0,0.4-0.1,0.8-0.4,1.1c-0.2,0.3-0.6,0.4-1,0.4
			c-0.5,0-0.9-0.2-1.2-0.6c-0.3-0.3-0.5-0.7-0.7-1.2l0.3-0.2c0.4,1.1,0.9,1.6,1.6,1.6c0.3,0,0.5-0.1,0.7-0.3
			c0.2-0.2,0.3-0.4,0.3-0.7c0-0.1,0-0.2-0.1-0.3l-1,0.4l-0.4-0.3v-1.4h-1.7v-0.3h3.8v0.3H93.7z"/>
		<path class="st2" d="M99.1,48.5c-0.6-0.4-1.2-0.6-1.6-0.6c-0.4,0-0.7,0.1-1,0.3c-0.3,0.2-0.4,0.5-0.4,0.9h0.4v0.3h-0.4v2.9h-0.4
			v-2.9h-0.4v-0.3h0.4c0-0.5,0.2-0.9,0.5-1.2c0.3-0.3,0.7-0.4,1.2-0.4c0.3,0,0.6,0.1,1,0.2c0.2,0.1,0.5,0.3,0.9,0.5L99.1,48.5z"/>
		<path class="st2" d="M98.8,49.4c0.1,0.4,0.4,0.6,0.9,0.6c0.1,0,0.1,0,0.2,0l0.3,0.4c-0.2,0.5-0.3,0.8-0.3,1c0,0.5,0.1,0.8,0.2,1
			l-0.3,0.1c-0.2-0.3-0.3-0.6-0.3-0.9c0-0.2,0-0.4,0.1-0.6c0-0.1,0.1-0.3,0.2-0.6c-0.3,0-0.6-0.1-0.8-0.3c-0.3-0.2-0.4-0.4-0.5-0.7
			c-0.4,0.3-0.6,0.6-0.6,1c0,0.2,0.1,0.3,0.3,0.3c0.1,0,0.2,0,0.3-0.1c0.1-0.1,0.2-0.1,0.2-0.2H99c0.1,0.1,0.1,0.3,0.1,0.6
			c0,0.8-0.4,1.1-1.2,1.1c-0.1,0-0.3,0-0.5-0.1c-0.1,0-0.2-0.1-0.4-0.2c-0.1-0.2-0.3-0.5-0.5-0.9l0.2-0.2c0.1,0.3,0.3,0.6,0.6,1l0,0
			l0.3,0.1c0.1,0.1,0.2,0.1,0.3,0.1c0.2,0,0.4-0.1,0.6-0.2c0.2-0.1,0.2-0.3,0.2-0.5c0-0.1,0-0.2-0.1-0.3c-0.2,0.2-0.4,0.3-0.6,0.3
			c-0.2,0-0.4-0.1-0.5-0.2c-0.1-0.1-0.2-0.3-0.2-0.5c0-0.3,0.1-0.6,0.4-0.9h-1.5v-0.3h4.1v0.3H98.8z"/>
		<path class="st2" d="M101,49.4V52l0.2,0c0.3,0,0.6-0.1,1-0.3c0.4-0.2,0.6-0.5,0.6-0.8c0-0.3-0.2-0.5-0.5-0.5
			c-0.1,0-0.3,0.1-0.5,0.2l-0.2-0.3c0.2-0.2,0.5-0.2,0.8-0.2c0.2,0,0.4,0.1,0.6,0.3c0.1,0.2,0.2,0.4,0.2,0.6c0,0.3-0.2,0.6-0.5,0.9
			c-0.3,0.2-0.6,0.4-0.9,0.4c-0.3,0.1-0.6,0.1-1.1,0.1v-3h-0.3v-0.3h2.3l0-0.1c0-0.2-0.1-0.4-0.3-0.5c-0.2-0.1-0.4-0.2-0.6-0.2
			c-0.3,0-0.7,0.1-1.1,0.4l-0.1-0.3c0.5-0.3,0.9-0.4,1.3-0.4c0.3,0,0.6,0.1,0.9,0.3c0.2,0.2,0.4,0.5,0.4,0.8h0.4v0.3H101z"/>
		<polygon class="st2" points="104.2,49.4 104.2,52.4 103.8,52.4 103.8,49.4 103.3,49.4 103.3,49.1 104.7,49.1 104.7,49.4 		"/>
		<path class="st2" d="M108.1,49.4v3h-0.4c0-0.1,0-0.2,0-0.3c0-0.1,0-0.2,0-0.3c0-0.7-0.2-1-0.5-1c-0.1,0-0.2,0.1-0.3,0.2
			c-0.1,0.1-0.1,0.2-0.1,0.4h-0.4c0-0.1-0.1-0.3-0.1-0.4c-0.1-0.1-0.2-0.2-0.4-0.2c-0.2,0-0.3,0.1-0.4,0.2c-0.1,0.1-0.1,0.3-0.1,0.4
			c0,0.4,0.2,0.5,0.7,0.5c0,0,0.1,0,0.1,0l-0.1,0.4c-0.1,0-0.1,0-0.1,0c-0.3,0-0.5-0.1-0.7-0.3c-0.2-0.2-0.3-0.4-0.3-0.7
			c0-0.3,0.1-0.5,0.3-0.7c0.2-0.2,0.4-0.3,0.7-0.3c0.3,0,0.5,0.2,0.7,0.5c0.2-0.3,0.5-0.5,0.7-0.5c0.2,0,0.4,0.2,0.5,0.5v-1.3h-3.2
			v-0.3h3.9v0.3H108.1z"/>
		<path class="st2" d="M110.4,51.1c0,0.2,0,0.4,0.1,0.6c0.1,0.3,0.3,0.4,0.5,0.4c0.1,0,0.2,0,0.3-0.1l0.1,0.3
			c-0.1,0.1-0.3,0.1-0.4,0.1c-0.6,0-1-0.5-1-1.5c0-0.6,0.4-1.2,1.1-1.8h0.6v0.3c-0.4,0.1-0.7,0.3-0.9,0.6
			C110.5,50.3,110.4,50.7,110.4,51.1"/>
		<path class="st2" d="M115,49.4v3h-0.4c0-0.1,0-0.2,0-0.3c0-0.1,0-0.2,0-0.3c0-0.7-0.2-1-0.5-1c-0.1,0-0.2,0.1-0.3,0.2
			c-0.1,0.1-0.1,0.2-0.1,0.4h-0.4c0-0.1-0.1-0.3-0.1-0.4c-0.1-0.1-0.2-0.2-0.4-0.2c-0.2,0-0.3,0.1-0.4,0.2c-0.1,0.1-0.1,0.3-0.1,0.4
			c0,0.4,0.2,0.5,0.7,0.5c0,0,0.1,0,0.1,0l-0.1,0.4c-0.1,0-0.1,0-0.1,0c-0.3,0-0.5-0.1-0.7-0.3c-0.2-0.2-0.3-0.4-0.3-0.7
			c0-0.3,0.1-0.5,0.3-0.7c0.2-0.2,0.4-0.3,0.7-0.3c0.3,0,0.5,0.2,0.7,0.5c0.2-0.3,0.5-0.5,0.7-0.5c0.2,0,0.4,0.2,0.5,0.5v-1.3h-3.2
			v-0.3h3.9v0.3H115z"/>
		<path class="st2" d="M118.3,49.4v3h-0.4v-0.2c0-0.3-0.2-0.6-0.5-0.9c-0.3-0.3-0.7-0.5-0.9-0.5c-0.1,0-0.3,0-0.4,0.1
			c-0.1,0.1-0.2,0.2-0.2,0.3c0,0.1,0,0.3,0.1,0.3c0.1,0.1,0.2,0.1,0.4,0.1c0.1,0,0.2,0,0.3-0.1l0.1,0.4c-0.1,0.1-0.3,0.1-0.5,0.1
			c-0.2,0-0.4-0.1-0.6-0.3c-0.1-0.2-0.2-0.4-0.2-0.6c0-0.3,0.1-0.5,0.2-0.6c0.2-0.2,0.4-0.3,0.6-0.3c0.6,0,1.1,0.3,1.5,1v-1.9h-2.7
			v-0.3h3.4v0.3H118.3z"/>
		<path class="st2" d="M120.1,52.6c-0.4,0-0.7-0.1-0.9-0.2c-0.3-0.3-0.5-0.8-0.5-1.3c0-0.3,0.1-0.6,0.3-0.9c0.1-0.2,0.3-0.5,0.6-0.8
			h-1.2v-0.3h1.9v0.3c-0.3,0.1-0.6,0.3-0.8,0.7c-0.3,0.3-0.4,0.7-0.4,1c0,0.8,0.3,1.2,1,1.2c0.1,0,0.2,0,0.3-0.1v0.4
			C120.3,52.6,120.2,52.6,120.1,52.6"/>
		<path class="st2" d="M120.5,49.4v1.3c0.6-0.4,1.1-0.7,1.5-0.8l0.4,0.5c-0.2,0.5-0.3,0.8-0.3,1.1c0,0.2,0.1,0.5,0.2,0.8l-0.3,0.1
			c-0.1-0.4-0.2-0.6-0.2-0.8c0-0.4,0-0.8,0.1-1.2c-0.4,0.2-0.9,0.5-1.5,1l-0.3-0.3v-1.7h-0.3v-0.3h2.9v0.3H120.5z"/>
		<path class="st2" d="M125.6,49.4v3h-0.4v-0.2c0-0.3-0.2-0.6-0.5-0.9c-0.3-0.3-0.7-0.5-0.9-0.5c-0.1,0-0.3,0-0.4,0.1
			c-0.1,0.1-0.2,0.2-0.2,0.3c0,0.1,0,0.3,0.1,0.3c0.1,0.1,0.2,0.1,0.4,0.1c0.1,0,0.2,0,0.3-0.1l0.1,0.4c-0.1,0.1-0.3,0.1-0.5,0.1
			c-0.2,0-0.4-0.1-0.6-0.3c-0.2-0.2-0.2-0.4-0.2-0.6c0-0.3,0.1-0.5,0.2-0.6c0.2-0.2,0.4-0.3,0.6-0.3c0.6,0,1.1,0.3,1.5,1v-1.9h-2.7
			v-0.3h3.4v0.3H125.6z"/>
	</g>
</g>
</svg>
